# xmcd
#
# Track frame offsets:
#	150
#	13188
#	27586
#	39411
#	52268
#	64005
#	79180
#	89594
#	106435
#	118294
#	129876
#	141666
#	154946
#	171314
#	187325
#	204469
#	219712
#
# Disc length: 3164
#
# Revision: 1
# Processed by: cddbd v1.5.1PL0 Copyright (c) Steve Scherf et al.
# Submitted via: VisiTrax 2.9.6.190 - For more info visit www.synapsa.com
# Normalized: r0:DSETVAR1
#
DISCID=0d0c5a11
DTITLE=Various Artist - All Time Classic Country Tearjerkers - CD1
DYEAR=1999
DGENRE=Country
TTITLE0=Dolly Parton - I Will Always Love You
TTITLE1=Roy Orbison - Crawling Back
TTITLE2=Don Gibson - I Can't Stop Loving You
TTITLE3=Faron Young - Your Cheatin' Heart
TTITLE4=Mandy Barnett - Funny, Familiar, Forgotten Feelings
TTITLE5=John Conlee - Rose Colored Glasses
TTITLE6=Jim Reeves - He'll Have To Go
TTITLE7=Dolly Parton, Linda Ronstadt, Emmylou Ha - To Know Him Is To Love Him
TTITLE8=Frankie Laine - High Noon
TTITLE9=Johnny Cash - I Still Miss Someone
TTITLE10=The Everly Brothers - Nashville Blues
TTITLE11=Ricky Skaggs - Cry, Cry Darlin'
TTITLE12=Carlene Carter - Unbreakable Heart
TTITLE13=Travis Tritt - Can I Trust You With My Heart
TTITLE14=Rodney Crowell - She Ain't Going Nowhere
TTITLE15=Kris Kristofferson - For The Good Times
TTITLE16=The Judds - Love Can Build A Bridge
EXTD=YEAR: 1999
EXTT0=
EXTT1=
EXTT2=
EXTT3=
EXTT4=
EXTT5=
EXTT6=
EXTT7=
EXTT8=
EXTT9=
EXTT10=
EXTT11=
EXTT12=
EXTT13=
EXTT14=
EXTT15=
EXTT16=
PLAYORDER=
